<svg width="251" height="251" viewBox="0 0 251 251" fill="none" xmlns="http://www.w3.org/2000/svg">
<path d="M0 49C0 21.938 21.938 0 49 0H202C229.062 0 251 21.938 251 49V202C251 229.062 229.062 251 202 251H49C21.938 251 0 229.062 0 202V49Z" fill="#FFE600"/>
<path d="M125.147 206.138C116.189 206.138 108.121 204.356 100.944 200.793C93.7673 197.23 88.0156 192.344 83.6891 186.134C79.3627 179.924 76.9958 172.849 76.5886 164.909H94.9125C95.6251 171.984 98.8318 177.838 104.533 182.469C110.284 187.05 117.156 189.341 125.147 189.341C131.56 189.341 137.261 187.839 142.249 184.836C147.288 181.833 151.233 177.71 154.083 172.468C156.985 167.174 158.435 161.193 158.435 154.526C158.435 147.705 156.934 141.623 153.931 136.278C150.978 130.883 146.906 126.633 141.715 123.528C136.523 120.423 130.593 118.845 123.925 118.794C119.141 118.743 114.229 119.481 109.19 121.008C104.151 122.484 100.002 124.393 96.7449 126.734L79.0318 124.597L88.4992 47.6364H169.735V64.4332H104.38L98.8827 110.548H99.7989C103.006 108.003 107.027 105.891 111.862 104.211C116.698 102.532 121.737 101.692 126.979 101.692C136.548 101.692 145.074 103.982 152.556 108.563C160.089 113.093 165.994 119.303 170.269 127.192C174.596 135.082 176.759 144.091 176.759 154.22C176.759 164.196 174.52 173.104 170.04 180.942C165.612 188.73 159.504 194.889 151.716 199.419C143.929 203.898 135.072 206.138 125.147 206.138Z" fill="black"/>
</svg>
