<svg width="261" height="49" viewBox="0 0 261 49" fill="none" xmlns="http://www.w3.org/2000/svg">
<path d="M0 8.99999C0 4.02943 4.02944 0 9 0H39.1482C44.1187 0 48.1481 4.02944 48.1481 9V39.1482C48.1481 44.1187 44.1187 48.1481 39.1481 48.1481H8.99999C4.02943 48.1481 0 44.1187 0 39.1481V8.99999Z" fill="#FFE600"/>
<path d="M24.0215 36.3182C22.6882 36.3182 21.4874 36.053 20.4192 35.5227C19.3511 34.9924 18.495 34.2652 17.8511 33.3409C17.2071 32.4167 16.8549 31.3636 16.7942 30.1818H19.5215C19.6276 31.2348 20.1049 32.1061 20.9533 32.7955C21.8094 33.4773 22.8321 33.8182 24.0215 33.8182C24.9761 33.8182 25.8245 33.5947 26.567 33.1477C27.317 32.7008 27.9041 32.0871 28.3283 31.3068C28.7602 30.5189 28.9761 29.6288 28.9761 28.6364C28.9761 27.6212 28.7526 26.7159 28.3056 25.9205C27.8662 25.1174 27.2602 24.4848 26.4874 24.0227C25.7147 23.5606 24.8321 23.3258 23.8397 23.3182C23.1276 23.3106 22.3965 23.4205 21.6465 23.6477C20.8965 23.8674 20.2791 24.1515 19.7942 24.5L17.1579 24.1818L18.567 12.7273H30.6579V15.2273H20.9306L20.1124 22.0909H20.2488C20.7261 21.7121 21.3245 21.3977 22.0442 21.1477C22.7639 20.8977 23.5139 20.7727 24.2942 20.7727C25.7185 20.7727 26.9874 21.1136 28.1011 21.7955C29.2223 22.4697 30.1011 23.3939 30.7374 24.5682C31.3814 25.7424 31.7033 27.0833 31.7033 28.5909C31.7033 30.0758 31.37 31.4015 30.7033 32.5682C30.0442 33.7273 29.1352 34.6439 27.9761 35.3182C26.817 35.9848 25.4988 36.3182 24.0215 36.3182Z" fill="black"/>
<path d="M53.1481 8.99999C53.1481 4.02943 57.1776 0 62.1481 0H92.2963C97.2669 0 101.296 4.02944 101.296 9V39.1482C101.296 44.1187 97.2669 48.1481 92.2963 48.1481H62.1481C57.1776 48.1481 53.1481 44.1187 53.1481 39.1481V8.99999Z" fill="#FFE600"/>
<path d="M69.4935 36V12.7273H83.539V15.2273H72.3117V22.5H78.2208C79.8875 22.5 81.2928 22.7727 82.4367 23.3182C83.5882 23.8636 84.4594 24.6326 85.0503 25.625C85.6488 26.6174 85.9481 27.7879 85.9481 29.1364C85.9481 30.4848 85.6488 31.6742 85.0503 32.7045C84.4594 33.7348 83.5882 34.5417 82.4367 35.125C81.2928 35.7083 79.8875 36 78.2208 36H69.4935ZM72.3117 33.5455H78.2208C79.2814 33.5455 80.1791 33.3333 80.914 32.9091C81.6564 32.4773 82.217 31.9242 82.5958 31.25C82.9822 30.5682 83.1753 29.8485 83.1753 29.0909C83.1753 27.9773 82.7473 27.0189 81.8913 26.2159C81.0352 25.4053 79.8117 25 78.2208 25H72.3117V33.5455Z" fill="black"/>
<path d="M106.296 8.99999C106.296 4.02943 110.326 0 115.296 0H145.444C150.415 0 154.444 4.02944 154.444 9V39.1482C154.444 44.1187 150.415 48.1481 145.444 48.1481H115.296C110.326 48.1481 106.296 44.1187 106.296 39.1481V8.99999Z" fill="#FFE600"/>
<path d="M124.431 36.3182V33.6818H125.886C126.447 33.6818 126.916 33.572 127.295 33.3523C127.681 33.1326 128 32.8485 128.25 32.5C128.507 32.1515 128.719 31.7879 128.886 31.4091L129.25 30.5455L121.204 12.7273H124.25L130.659 27.1818L136.522 12.7273H139.522L131.477 32.2273C131.159 32.9545 130.795 33.6288 130.386 34.25C129.984 34.8712 129.435 35.3712 128.738 35.75C128.049 36.1288 127.113 36.3182 125.931 36.3182H124.431Z" fill="black"/>
<path d="M159.444 8.99999C159.444 4.02943 163.474 0 168.444 0H198.593C203.563 0 207.593 4.02944 207.593 9V39.1482C207.593 44.1187 203.563 48.1481 198.593 48.1481H168.444C163.474 48.1481 159.444 44.1187 159.444 39.1481V8.99999Z" fill="#FFE600"/>
<path d="M189.675 36L181.675 25.3182H178.811V36H175.993V12.7273H178.811V22.8182H180.038L189.357 12.7273H192.72L183.311 22.9545L193.038 36H189.675Z" fill="black"/>
<path d="M212.593 8.99999C212.593 4.02943 216.622 0 221.593 0H251.741C256.711 0 260.741 4.02944 260.741 9V39.1482C260.741 44.1187 256.711 48.1481 251.741 48.1481H221.593C216.622 48.1481 212.593 44.1187 212.593 39.1481V8.99999Z" fill="#FFE600"/>
<path d="M229.079 36V12.7273H237.215C238.836 12.7273 240.173 13.0076 241.226 13.5682C242.279 14.1212 243.063 14.8674 243.579 15.8068C244.094 16.7386 244.351 17.7727 244.351 18.9091C244.351 19.9091 244.173 20.7348 243.817 21.3864C243.469 22.0379 243.007 22.553 242.431 22.9318C241.863 23.3106 241.245 23.5909 240.579 23.7727V24C241.291 24.0455 242.007 24.2955 242.726 24.75C243.446 25.2045 244.048 25.8561 244.533 26.7045C245.018 27.553 245.26 28.5909 245.26 29.8182C245.26 30.9848 244.995 32.0341 244.465 32.9659C243.935 33.8977 243.098 34.6364 241.954 35.1818C240.81 35.7273 239.321 36 237.488 36H229.079ZM231.897 33.5H237.488C239.329 33.5 240.635 33.1439 241.408 32.4318C242.188 31.7121 242.579 30.8409 242.579 29.8182C242.579 29.0303 242.378 28.303 241.976 27.6364C241.575 26.9621 241.003 26.4242 240.26 26.0227C239.518 25.6136 238.639 25.4091 237.624 25.4091H231.897V33.5ZM231.897 22.9545H237.124C237.973 22.9545 238.738 22.7879 239.42 22.4545C240.109 22.1212 240.654 21.6515 241.056 21.0455C241.465 20.4394 241.67 19.7273 241.67 18.9091C241.67 17.8864 241.313 17.0189 240.601 16.3068C239.889 15.5871 238.76 15.2273 237.215 15.2273H231.897V22.9545Z" fill="black"/>
</svg>
